<?xml version="1.0" encoding="utf-8"?>
<!-- Generator: Adobe Illustrator 23.0.6, SVG Export Plug-In . SVG Version: 6.00 Build 0)  -->
<svg version="1.1" id="Laag_1" focusable="false" xmlns="http://www.w3.org/2000/svg" xmlns:xlink="http://www.w3.org/1999/xlink"
	 x="0px" y="0px" viewBox="0 0 512 512" style="enable-background:new 0 0 512 512;" xml:space="preserve">
<style type="text/css">
	.st0{fill:#B3A23B;}
</style>
<g>
	<image style="overflow:visible;" width="518" height="461" xlink:href="C29BB5CB.png"  transform="matrix(1 0 0 1 -3 26)">
	</image>
	<g>
		<path class="st0" d="M481.7,157.8v253.9c0,23.4-19,42.3-42.3,42.3H72.6c-23.4,0-42.3-19-42.3-42.3V157.8c0-23.4,19-42.3,42.3-42.3
			h77.6l10.8-29c6.2-16.5,22-27.4,39.6-27.4h110.7c17.6,0,33.4,10.9,39.6,27.4l10.9,29h77.6C462.8,115.4,481.7,134.4,481.7,157.8z
			 M361.8,284.7c0-58.4-47.4-105.8-105.8-105.8s-105.8,47.4-105.8,105.8S197.6,390.5,256,390.5S361.8,343.1,361.8,284.7z
			 M333.6,284.7c0,42.8-34.8,77.6-77.6,77.6s-77.6-34.8-77.6-77.6s34.8-77.6,77.6-77.6S333.6,242,333.6,284.7z"/>
	</g>
</g>
</svg>
